PathFileType	4	(X/Y/Z)	C:/Users/beibeiliu/ov580/test_trc/User2\sequence.30_training_dense_right.trc
DataRate	CameraRate	NumFrames	NumMarkers	Units	OrigDataRate	OrigDataStartFrame	OrigNumFrames
120	120	18	19	mm	120	152	302
Frame#	Time	ThumbCMC			ThumbMCP			ThumbIP			ThumbTip			IndexMCP			IndexPIP			IndexTip			MiddleMCP			MiddlePIP			MiddleTip			RingMCP			RingPIP			RingTip			PinkyMCP			PinkyPIP			PinkyTip			BackHand1			BackHand2			BackHand3	
		X0	Y0	Z0	X1	Y1	Z1	X2	Y2	Z2	X3	Y3	Z3	X4	Y4	Z4	X5	Y5	Z5	X6	Y6	Z6	X7	Y7	Z7	X8	Y8	Z8	X9	Y9	Z9	X10	Y10	Z10	X11	Y11	Z11	X12	Y12	Z12	X13	Y13	Z13	X14	Y14	Z14	X15	Y15	Z15	X16	Y16	Z16	X17	Y17	Z17	X18	Y18	Z18	
151	1.25833	36.004	13.8346	79.567	12.6133	-6.96934	60.7162	2.34651	-22.8792	29.8886	3.75915	-37.9032	8.02855	35.4201	27.1352	-0.283942	25.8941	10.1409	-24.5887	11.4046	-20.621	-37.0858	62.7237	22.5669	-12.213	50.4498	13.626	-44.0203	36.5788	-1.82877	-69.1961	80.7727	7.30865	-17.7355	71.15	-1.04572	-43.0548	57.636	-13.9632	-61.9859	99.0236	-11.18	-3.06331	89.1735	-19.7013	-29.3857	79.0675	-31.0435	-52.0972	97.217	18.0708	42.1579	112.127	17.3454	74.9021	73.1363	34.5275	64.7955	
152	1.26667	41.9888	3.88408	77.9239	18.0413	-18.4555	61.0433	3.44826	-40.2026	29.5832	8.28506	-54.6835	9.46328	42.3725	10.8499	-4.22531	30.2839	-6.21694	-28.7634	20.5896	-34.5489	-40.2943	65.7854	7.65645	-19.8264	53.5459	-5.5447	-46.8624	46.6723	-28.6603	-70.4926	85.8074	-6.08691	-14.3268	76.2871	-16.6686	-38.5676	62.1429	-36.3856	-58.6904	101.337	-22.1119	-1.26722	96.6727	-38.5003	-29.1188	86.2666	-49.6292	-45.7917	104.801	9.71076	39.9851	108.901	14.3305	74.7573	73.3259	27.1473	63.6529	
153	1.275	42.2516	-1.86112	81.9259	19.6699	-28.0334	63.9871	7.11603	-52.7168	36.2556	10.5751	-71.7501	18.4728	36.7858	-3.99259	-4.87118	29.2635	-24.3094	-26.2944	22.9974	-52.6688	-36.2459	63.2047	-6.41477	-13.4676	53.9047	-30.1535	-44.4295	40.7235	-57.4105	-60.8381	83.3543	-20.4129	-15.6839	76.0572	-39.7171	-36.4677	63.4475	-64.9766	-49.2126	103.781	-33.7154	0.266705	97.076	-53.9418	-22.6077	82.5927	-71.9997	-37.5344	102.57	2.50424	38.4243	110.992	12.3316	67.8161	74.4799	20.0208	61.5807	
154	1.28333	42.9777	-7.5306	85.5966	20.3894	-35.27	71.3875	9.34721	-62.5817	49.758	11.32	-82.8042	30.4311	34.389	-20.5471	-0.686703	22.8976	-42.7376	-18.0312	19.0204	-72.2105	-23.3511	58.2517	-23.617	-10.5154	48.0176	-48.7135	-31.763	34.3274	-83.2496	-40.1527	80.4118	-34.2713	-7.40769	73.5884	-58.2073	-25.558	54.7468	-84.949	-30.5222	102.09	-44.8707	6.85522	94.1227	-66.3076	-11.8724	81.2388	-88.6019	-22.1365	97.4196	-3.99521	42.9126	111.247	7.61207	69.9837	69.5295	16.4208	60.9761	
155	1.29167	41.8384	-8.23124	93.2964	17.5858	-37.1491	81.9701	4.74264	-66.1898	61.6164	9.55954	-85.6963	45.4389	28.9089	-27.7577	9.44822	18.8401	-54.5121	-4.58012	11.0319	-78.7122	-7.89882	46.8264	-33.9102	-2.38437	38.6735	-65.997	-18.3163	26.3534	-99.4569	-16.9963	74.0129	-44.9062	2.00972	61.8432	-72.0975	-12.9266	44.9424	-101.04	-8.46288	95.0675	-50.3828	14.2458	83.3644	-78.2219	-1.60274	66.8145	-100.896	-4.19132	95.1031	-8.01989	42.0457	107.332	5.68751	72.4779	67.8214	12.0177	66.2999	
156	1.3	35.472	-6.71306	100.956	15.9529	-34.7466	94.2681	2.13022	-63.1152	75.231	-1.23472	-83.6498	59.777	18.8887	-27.2426	20.5082	8.40533	-54.6482	6.8818	2.47639	-80.2371	5.3368	40.9361	-36.8059	8.21455	26.5916	-63.1034	-2.81434	19.6339	-102.601	-1.29507	58.4721	-46.9513	7.69093	46.5989	-74.7925	0.120374	33.1876	-102.018	6.45722	84.9668	-52.0255	20.4181	69.3494	-75.6361	9.7843	54.4774	-102.729	8.84524	86.9535	-6.96202	48.176	100.451	8.03276	78.321	63.374	15.0999	70.8241	
157	1.30833	31.5583	-3.62141	111.424	8.59921	-31.9084	96.1558	-6.78133	-57.9722	77.403	-8.9382	-77.033	61.4645	13.7668	-18.5222	30.389	-2.35052	-43.5042	16.295	-8.84697	-74.2049	11.0862	29.2689	-29.3864	14.2192	18.9321	-60.0449	2.37778	10.3985	-93.4632	1.21449	54.8207	-40.5134	14.4435	40.2322	-63.9262	4.93798	28.545	-94.1595	6.49099	75.8516	-45.6279	23.2286	59.5702	-68.1799	14.8122	47.1053	-91.5495	12.7989	83.4497	1.73225	57.5892	95.8984	15.2476	84.3081	55.0872	19.252	80.8072	
158	1.31667	26.3581	-1.12987	110.047	3.99243	-25.3897	102.209	-11.4662	-49.5153	78.643	-20.1449	-68.0257	60.2598	6.6052	-7.09397	30.711	-8.68644	-27.3391	18.4033	-14.0223	-58.1177	7.86395	26.7502	-13.9183	17.1197	12.6109	-41.0198	1.03753	4.08612	-74.8446	-5.15646	46.2945	-25.749	14.9598	33.2179	-48.3154	4.2422	15.8585	-78.5484	0.475553	69.3707	-34.1503	22.1475	51.0138	-56.9861	13.4565	42.4001	-79.4859	7.77608	76.4218	9.52281	56.1717	89.453	18.4275	87.2549	49.8996	25.1405	85.9274	
159	1.325	24.4977	4.12418	113.588	4.52725	-18.961	95.5306	-13.5692	-38.7721	75.8651	-22.9677	-55.5895	51.7158	1.84697	7.9052	30.732	-9.56674	-9.74759	14.2106	-20.5297	-39.1556	1.68465	23.6787	4.02351	17.3122	8.6003	-25.1719	-6.48358	0.0513427	-51.5773	-14.7094	42.3811	-8.02404	14.073	29.4029	-30.5895	-4.18014	17.136	-55.7948	-12.2304	64.6811	-17.4861	21.6529	51.153	-41.2618	6.11278	35.0065	-60.4099	-0.165427	77.5274	19.3064	60.7939	91.3801	23.8454	87.1008	51.9955	32.1439	84.932	
160	1.33333	26.4728	8.21071	104.736	-0.150343	-12.9861	92.5447	-19.4819	-29.7689	68.2145	-25.6428	-42.9055	42.7874	3.57368	23.2111	28.6538	-7.78838	6.77259	7.61364	-17.6449	-22.2506	-9.86662	22.0478	19.0074	11.6589	7.40754	-3.21388	-11.8807	1.33413	-29.8609	-25.2229	43.0889	7.02303	6.16981	30.5889	-10.7587	-10.8953	17.3342	-36.5219	-24.3851	67.1275	-5.17229	13.8852	52.8367	-22.0682	1.00688	41.055	-41.695	-11.4168	77.0713	29.5594	62.0691	91.6576	30.8546	86.6782	49.9223	38.3715	89.4658	
161	1.34167	28.152	12.0826	103.95	2.84288	-6.79096	83.0723	-15.5714	-20.5682	54.3887	-20.2608	-31.9611	35.4752	11.1944	36.4913	24.9855	0.0562514	21.5685	-0.699081	-10.2421	-6.93413	-17.8864	28.9846	33.5269	7.90701	21.4178	15.9144	-18.2123	5.82824	-10.5148	-34.9268	52.362	20.406	3.4351	39.6523	4.59618	-18.9536	26.8335	-15.8242	-32.6186	72.7375	6.61137	9.77974	63.1631	-10.3255	-9.01135	49.2487	-27.9018	-23.0987	78.1763	37.1255	58.8078	94.9563	35.8989	91.8425	54.3806	44.6	89.045	
162	1.35	31.6358	16.5481	96.2639	6.55834	-1.7723	76.5982	-7.63548	-14.3426	48.4659	-10.7101	-25.2506	24.9714	22.303	43.8673	20.9291	11.0662	32.4447	-7.27826	-0.880224	7.99223	-22.1082	41.3172	42.4212	2.99432	28.3709	27.8824	-24.7015	15.8143	-3.95198	-43.066	59.6947	29.6577	-0.454835	48.6533	16.7406	-23.5661	33.386	-10.2713	-38.9822	86.3395	14.0393	7.12212	70.4055	-1.35478	-14.7009	55.1298	-21.1205	-28.5172	88.3787	39.5251	53.951	101.61	38.3837	87.4717	57.0174	46.7078	82.7329	
163	1.35833	35.093	16.7817	94.7042	13.9024	0.12319	67.8901	1.62813	-13.6968	38.4899	-0.256505	-24.2663	15.3289	27.9112	47.1012	11.7422	21.0618	34.6181	-13.7764	13.8515	3.27208	-29.0017	51.1819	46.2562	1.31915	43.7047	28.7701	-30.77	29.3853	-1.11935	-42.5519	73.0348	31.5735	-4.21071	63.0527	15.4813	-29.2752	48.5789	-10.2862	-39.2015	92.835	14.2914	4.43885	78.7099	-1.04533	-17.2626	61.9286	-23.3206	-29.9127	94.0181	40.4016	55.3462	105.672	38.8714	84.7894	66.1328	45.8395	82.7249	
164	1.36667	42.369	15.5676	88.5196	20.0101	-3.32633	65.1644	7.88957	-17.7782	33.269	11.1774	-29.4153	13.3478	43.7694	43.1125	7.72014	30.7886	27.4462	-21.3271	25.305	-1.29644	-28.4565	61.4818	40.3839	-5.13989	52.0326	20.6895	-33.8091	42.1015	-16.4858	-39.5297	82.5365	25.4591	-6.93313	72.8703	6.2823	-29.7569	56.7271	-24.732	-32.5878	103.17	9.37293	4.58287	92.561	-10.9116	-18.4121	69.9154	-36.0831	-22.2308	103.488	36.532	52.7039	112.926	34.4184	87.1362	72.341	43.7696	78.8969	
165	1.375	46.9114	12.3747	87.7934	24.8906	-10.0126	63.8306	12.3925	-27.7273	31.6234	21.7872	-39.6712	10.2647	47.8328	32.9053	5.10034	40.6604	13.5362	-24.7883	34.3464	-16.6995	-25.852	74.4248	27.7902	-6.15545	63.366	1.95103	-35.1319	54.299	-34.1421	-30.3573	92.8991	12.8534	-7.87194	79.6768	-6.49973	-26.9992	67.9214	-41.4192	-20.7085	106.077	-0.711607	2.79684	96.5139	-21.8976	-13.9857	79.2284	-50.8639	-8.38991	106.483	31.2325	54.3764	115.983	31.0823	82.596	75.9796	39.9214	73.7727	
166	1.38333	46.8998	5.45631	84.159	28.37	-18.3771	65.2543	16.4305	-39.1596	41.7765	25.5099	-51.8881	18.9692	52.59	17.1365	2.87727	45.8851	-6.06512	-22.078	39.8497	-37.4883	-17.3003	70.8016	14.0441	-9.42217	62.7605	-15.4843	-30.9256	55.3177	-52.1245	-15.548	93.0379	0.601857	-5.94536	85.6495	-28.2319	-22.3579	72.982	-56.1224	-7.12623	109.883	-9.25045	9.4714	101.601	-38.0917	-7.75456	83.2477	-57.9571	6.64598	104.295	24.0694	49.5916	114.138	28.3799	80.3957	74.9983	35.7313	71.5467	
167	1.39167	42.8735	-0.302434	91.6419	26.123	-25.2945	74.1775	15.0282	-49.4664	44.5612	24.8155	-64.0685	27.6586	42.3195	4.50712	5.18216	38.8823	-19.5219	-15.5625	40.0659	-56.3111	-4.86493	64.69	1.26575	-5.40149	61.0171	-29.9327	-23.7951	57.739	-67.1669	-3.19861	88.8284	-10.8918	-2.76142	79.0813	-42.0193	-15.8279	73.3703	-67.6719	5.86948	109.015	-19.4351	10.3135	96.8213	-46.9327	-1.25268	84.7912	-68.847	18.5834	101.843	17.6905	49.6758	112.545	26.9925	81.7512	72.8428	30.2069	71.1766	
168	1.4	39.0832	-4.091	99.5768	23.5131	-29.844	80.0931	13.4803	-52.6067	57.2049	18.9791	-68.1501	35.8526	35.0865	-3.13715	13.8344	32.4014	-32.2822	-7.87176	31.6802	-62.8879	3.11038	57.1924	-5.9219	0.914456	51.4095	-38.1259	-17.5381	51.5487	-72.0615	3.86052	81.8317	-18.0999	0.0815417	72.143	-51.6466	-10.0258	63.4543	-73.4209	16.9818	101.325	-26.7839	9.24976	86.3149	-54.1274	3.26929	77.7895	-75.9649	22.5645	97.3256	14.703	52.903	104.79	23.6806	80.5458	69.1873	24.4534	76.8108	
